<?xml version="1.0" encoding="utf-8"?>
<!-- Generator: Adobe Illustrator 21.0.0, SVG Export Plug-In . SVG Version: 6.00 Build 0)  -->
<svg version="1.1" id="Layer_1" xmlns="http://www.w3.org/2000/svg" xmlns:xlink="http://www.w3.org/1999/xlink" x="0px" y="0px"
	 viewBox="0 0 512 512" style="enable-background:new 0 0 512 512;" xml:space="preserve">
<style type="text/css">
	.st0{fill:#B7B7B8;}
	.st1{fill:#51B848;}
	.st2{fill:#848484;}
	.st3{fill:#557EBF;}
	.st4{fill:#36A852;}
	.st5{fill:#F9BC15;}
	.st6{fill:#EA4535;}
	.st7{fill:#C52627;}
</style>
<g id="XMLID_1_">
	<g id="XMLID_30_">
		<g id="XMLID_123_">
			<g id="XMLID_132_">
				<path id="XMLID_133_" class="st0" d="M227.5,527.9l4.8-5.9h4.3l-5.4,6l5.7,8.1h-4.5l-3.2-5.5l-1.8,1.6v3.9h-3.4v-19.1h3.4
					C227.4,516.9,227.1,528.3,227.5,527.9z"/>
			</g>
			<path id="XMLID_130_" class="st0" d="M193.3,522.8l-1.2,2.4c-1.4-0.7-2.4-1-3.4-1c-1.1,0-1.8,0.5-1.8,1.4c0,0.7,0.5,1.1,1.7,1.4
				l1.7,0.4c1.7,0.4,2.3,0.9,2.8,1.6c0.5,0.7,0.8,1.4,0.8,2.4c0,2.9-2.4,4.8-5.9,4.8c-1.7,0-3.6-0.5-5.6-1.6l1.3-2.7
				c1.1,0.7,3,1.6,4.6,1.6c1,0,1.8-0.7,1.8-1.6c0-0.9-0.7-1.4-2.1-1.7l-1.6-0.3c-0.9-0.2-2.1-0.8-2.5-1.4c-0.5-0.6-0.8-1.6-0.8-2.5
				c0-2.7,2.1-4.5,5.4-4.5C190.5,521.5,192,522.2,193.3,522.8z"/>
			<path id="XMLID_127_" class="st0" d="M205.8,532.1l1.4,2.2c-1.6,1.3-3.3,1.9-5.2,1.9c-4,0-6.6-2.8-6.6-7.2c0-2.5,0.5-4.1,1.7-5.5
				c1.1-1.3,2.5-1.9,4.4-1.9c1.6,0,3.1,0.5,4,1.5c1.3,1.3,1.8,3.2,1.8,6.1c0,0.3,0,0.4,0,0.8h-8v0.1c0,2.1,1.1,3.4,2.9,3.4
				C203.6,533.5,204.7,533,205.8,532.1z M199.4,527.4h4.2v-0.2c0-1-0.1-1.6-0.4-2.1c-0.4-0.5-0.9-0.8-1.6-0.8
				C200.2,524.3,199.4,525.4,199.4,527.4L199.4,527.4z"/>
			<path id="XMLID_124_" class="st0" d="M219.6,532.1l1.4,2.2c-1.6,1.3-3.3,1.9-5.2,1.9c-4,0-6.6-2.8-6.6-7.2c0-2.5,0.5-4.1,1.7-5.5
				c1.1-1.3,2.5-1.9,4.4-1.9c1.6,0,3.1,0.5,4,1.5c1.3,1.3,1.8,3.2,1.8,6.1c0,0.3,0,0.4,0,0.8h-8v0.1c0,2.1,1.1,3.4,2.9,3.4
				C217.3,533.5,218.5,533,219.6,532.1z M213.2,527.4h4.2v-0.2c0-1-0.1-1.6-0.4-2.1c-0.4-0.5-0.9-0.8-1.6-0.8
				C214,524.3,213.2,525.4,213.2,527.4L213.2,527.4z"/>
		</g>
	</g>
	<g id="XMLID_18_">
		<path id="XMLID_28_" class="st1" d="M238.7,516.4h1.8v16.3c0,0.5,0.1,0.9,0.4,1.2c0.3,0.3,0.7,0.4,1.2,0.4c0.2,0,0.4,0,0.7-0.1
			c0.3-0.1,0.5-0.1,0.7-0.2l0.3,1.5c-0.3,0.1-0.8,0.3-1.2,0.3c-0.5,0.1-0.9,0.1-1.3,0.1c-0.8,0-1.5-0.2-2-0.7
			c-0.5-0.5-0.7-1.1-0.7-2V516.4z"/>
		<path id="XMLID_25_" class="st1" d="M250.8,536.1c-1,0-1.9-0.2-2.8-0.6c-0.8-0.4-1.6-0.9-2.2-1.6c-0.6-0.7-1.1-1.4-1.4-2.3
			c-0.3-0.9-0.5-1.8-0.5-2.7c0-1,0.2-1.9,0.5-2.8c0.3-0.9,0.8-1.6,1.4-2.3c0.6-0.7,1.3-1.2,2.2-1.6c0.8-0.4,1.8-0.6,2.7-0.6
			c1,0,1.9,0.2,2.8,0.6c0.8,0.4,1.6,0.9,2.2,1.6c0.6,0.7,1.1,1.4,1.4,2.3c0.3,0.9,0.5,1.8,0.5,2.8c0,1-0.2,1.9-0.5,2.7
			c-0.3,0.9-0.8,1.6-1.4,2.3c-0.6,0.7-1.3,1.2-2.2,1.6C252.7,536,251.8,536.1,250.8,536.1z M245.7,529c0,0.8,0.1,1.5,0.4,2.2
			s0.6,1.3,1.1,1.8c0.5,0.5,1,0.9,1.6,1.2c0.6,0.3,1.3,0.4,2,0.4s1.3-0.1,2-0.4c0.6-0.3,1.2-0.7,1.6-1.2c0.5-0.5,0.8-1.1,1.1-1.8
			c0.3-0.7,0.4-1.4,0.4-2.2c0-0.8-0.1-1.5-0.4-2.2c-0.3-0.7-0.6-1.3-1.1-1.8c-0.5-0.5-1-0.9-1.6-1.2c-0.6-0.3-1.3-0.4-2-0.4
			s-1.3,0.1-1.9,0.4c-0.6,0.3-1.1,0.7-1.6,1.2c-0.5,0.5-0.8,1.1-1.1,1.8C245.9,527.5,245.7,528.2,245.7,529z"/>
		<path id="XMLID_22_" class="st1" d="M265.2,536.1c-1,0-1.8-0.2-2.6-0.6c-0.8-0.4-1.5-0.9-2.1-1.6c-0.6-0.7-1-1.4-1.3-2.3
			c-0.3-0.9-0.5-1.7-0.5-2.6c0-1,0.2-1.9,0.5-2.8c0.3-0.9,0.8-1.7,1.3-2.3c0.6-0.7,1.2-1.2,2-1.6c0.8-0.4,1.7-0.6,2.6-0.6
			c1.2,0,2.2,0.3,3.1,0.9c0.9,0.6,1.6,1.3,2.2,2.3V522h1.6v14c0,1-0.2,1.8-0.5,2.5c-0.4,0.7-0.9,1.4-1.5,1.9
			c-0.6,0.5-1.3,0.9-2.2,1.1c-0.8,0.2-1.7,0.4-2.6,0.4c-1.6,0-2.9-0.3-3.9-0.9c-1-0.6-1.8-1.3-2.4-2.3l1.1-0.9
			c0.6,0.9,1.3,1.5,2.2,2c0.9,0.4,1.9,0.6,2.9,0.6c0.7,0,1.3-0.1,1.9-0.3c0.6-0.2,1.1-0.5,1.6-0.8c0.5-0.4,0.8-0.8,1.1-1.4
			c0.3-0.6,0.4-1.2,0.4-2v-2.7c-0.5,0.9-1.3,1.6-2.2,2.1C267.2,535.8,266.2,536.1,265.2,536.1z M265.7,534.5c0.5,0,1.1-0.1,1.6-0.3
			c0.5-0.2,1-0.5,1.4-0.8c0.4-0.3,0.8-0.7,1.1-1.1c0.3-0.4,0.5-0.8,0.6-1.3v-4.3c-0.2-0.5-0.5-1-0.8-1.4c-0.3-0.4-0.7-0.8-1.1-1.1
			c-0.4-0.3-0.9-0.5-1.4-0.7c-0.5-0.2-1-0.3-1.5-0.3c-0.8,0-1.5,0.2-2.1,0.5c-0.6,0.3-1.1,0.8-1.6,1.3c-0.4,0.5-0.8,1.1-1,1.8
			c-0.2,0.7-0.3,1.4-0.3,2.1c0,0.7,0.1,1.5,0.4,2.1c0.3,0.7,0.6,1.3,1.1,1.8c0.5,0.5,1,0.9,1.6,1.2
			C264.3,534.4,265,534.5,265.7,534.5z"/>
		<path id="XMLID_19_" class="st1" d="M281,536.1c-1,0-1.9-0.2-2.8-0.6c-0.8-0.4-1.6-0.9-2.2-1.6c-0.6-0.7-1.1-1.4-1.4-2.3
			c-0.3-0.9-0.5-1.8-0.5-2.7c0-1,0.2-1.9,0.5-2.8c0.3-0.9,0.8-1.6,1.4-2.3c0.6-0.7,1.3-1.2,2.2-1.6c0.8-0.4,1.8-0.6,2.7-0.6
			c1,0,1.9,0.2,2.8,0.6c0.8,0.4,1.6,0.9,2.2,1.6c0.6,0.7,1.1,1.4,1.4,2.3c0.3,0.9,0.5,1.8,0.5,2.8c0,1-0.2,1.9-0.5,2.7
			c-0.3,0.9-0.8,1.6-1.4,2.3c-0.6,0.7-1.3,1.2-2.2,1.6C282.9,536,282,536.1,281,536.1z M276,529c0,0.8,0.1,1.5,0.4,2.2
			c0.3,0.7,0.6,1.3,1.1,1.8c0.5,0.5,1,0.9,1.6,1.2s1.3,0.4,2,0.4c0.7,0,1.3-0.1,2-0.4c0.6-0.3,1.2-0.7,1.6-1.2
			c0.5-0.5,0.8-1.1,1.1-1.8c0.3-0.7,0.4-1.4,0.4-2.2c0-0.8-0.1-1.5-0.4-2.2c-0.3-0.7-0.6-1.3-1.1-1.8c-0.5-0.5-1-0.9-1.6-1.2
			c-0.6-0.3-1.3-0.4-2-0.4c-0.7,0-1.3,0.1-1.9,0.4c-0.6,0.3-1.1,0.7-1.6,1.2c-0.5,0.5-0.8,1.1-1.1,1.8
			C276.1,527.5,276,528.2,276,529z"/>
	</g>
	<g id="XMLID_15_">
		<path id="XMLID_16_" class="st2" d="M291.7,534.6c0,0.5-0.2,1-0.6,1.4c-0.4,0.4-0.8,0.6-1.4,0.6c-0.5,0-1-0.2-1.4-0.6
			c-0.4-0.4-0.6-0.8-0.6-1.4c0-0.6,0.2-1,0.6-1.4c0.4-0.4,0.8-0.6,1.4-0.6c0.6,0,1,0.2,1.4,0.6C291.5,533.5,291.7,534,291.7,534.6z"
			/>
		<path id="XMLID_20_" class="st2" d="M293.5,522.3h2.5v2h0.1c0.4-0.7,1-1.3,1.9-1.7c0.8-0.5,1.7-0.7,2.6-0.7c1.7,0,3,0.5,4,1.5
			c0.9,1,1.4,2.4,1.4,4.2v8.8h-2.6v-8.7c-0.1-2.3-1.2-3.4-3.5-3.4c-1.1,0-1.9,0.4-2.6,1.3c-0.7,0.9-1.1,1.9-1.1,3.1v7.8h-2.6V522.3z
			"/>
		<path id="XMLID_23_" class="st2" d="M314.2,536.8c-2.1,0-3.8-0.7-5.1-2.1c-1.3-1.4-2-3.2-2-5.4c0-2.1,0.7-3.9,2-5.4
			c1.3-1.4,3-2.1,5-2.1c2.1,0,3.7,0.7,5,2c1.2,1.3,1.9,3.2,1.9,5.7l0,0.3h-11.1c0,1.4,0.5,2.5,1.4,3.3c0.9,0.8,1.9,1.3,3.2,1.3
			c1.7,0,3-0.8,4-2.5l2.4,1.1c-0.6,1.2-1.5,2.1-2.6,2.8C316.9,536.5,315.6,536.8,314.2,536.8z M310,527.6h8.1
			c-0.1-1-0.5-1.8-1.2-2.4c-0.7-0.6-1.7-1-2.9-1c-1,0-1.9,0.3-2.6,0.9C310.7,525.8,310.2,526.6,310,527.6z"/>
		<path id="XMLID_27_" class="st2" d="M327.3,536.6c-1.1,0-2.1-0.4-2.9-1.1c-0.8-0.7-1.1-1.7-1.2-3v-7.9h-2.5v-2.4h2.5V518h2.6v4.3
			h3.4v2.4h-3.4v7c0,0.9,0.2,1.6,0.5,1.9c0.4,0.3,0.8,0.5,1.2,0.5c0.2,0,0.4,0,0.6-0.1c0.2,0,0.4-0.1,0.6-0.2l0.8,2.4
			C329,536.4,328.2,536.6,327.3,536.6z"/>
	</g>
</g>
<g>
	<g>
		<path class="st3" d="M190,313.3h24.3v-59l-34.7-26v74.7C179.6,308.7,184.3,313.3,190,313.3z"/>
		<path class="st4" d="M297.7,313.3H322c5.8,0,10.4-4.7,10.4-10.4v-74.7l-34.7,26V313.3z"/>
		<path class="st5" d="M297.7,209.1v45.1l34.7-26v-13.9c0-12.9-14.7-20.2-25-12.5L297.7,209.1z"/>
		<path class="st6" d="M214.3,254.3v-45.1l41.7,31.3l41.7-31.3v45.1L256,285.5L214.3,254.3z"/>
		<path class="st7" d="M179.6,214.3v13.9l34.7,26v-45.1l-9.7-7.3C194.3,194.1,179.6,201.5,179.6,214.3z"/>
	</g>
</g>
</svg>
